<mxfile host="app.diagrams.net" modified="2022-06-25T03:37:11.531Z" agent="5.0 (Windows NT 10.0; Win64; x64) AppleWebKit/537.36 (KHTML, like Gecko) Chrome/102.0.0.0 Safari/537.36" etag="cOB9yGPhBk1KJ-cwbIv9" version="20.0.3" type="github">
  <diagram id="YU3feAvMAWmFrvA6Q01h" name="第 1 页">
    <mxGraphModel dx="937" dy="634" grid="1" gridSize="10" guides="1" tooltips="1" connect="1" arrows="1" fold="1" page="1" pageScale="1" pageWidth="827" pageHeight="1169" math="0" shadow="0">
      <root>
        <mxCell id="0" />
        <mxCell id="1" parent="0" />
        <mxCell id="3ieeocN1eD7Hzq-fFFbV-1" value="Pool" style="swimlane;childLayout=stackLayout;resizeParent=1;resizeParentMax=0;startSize=20;" vertex="1" parent="1">
          <mxGeometry x="230" y="90" width="360" height="480" as="geometry" />
        </mxCell>
        <mxCell id="3ieeocN1eD7Hzq-fFFbV-2" value="Lane 1" style="swimlane;startSize=20;" vertex="1" parent="3ieeocN1eD7Hzq-fFFbV-1">
          <mxGeometry y="20" width="120" height="460" as="geometry" />
        </mxCell>
        <mxCell id="3ieeocN1eD7Hzq-fFFbV-3" value="Lane 2" style="swimlane;startSize=20;" vertex="1" parent="3ieeocN1eD7Hzq-fFFbV-1">
          <mxGeometry x="120" y="20" width="120" height="460" as="geometry" />
        </mxCell>
        <mxCell id="3ieeocN1eD7Hzq-fFFbV-4" value="Lane 3" style="swimlane;startSize=20;" vertex="1" parent="3ieeocN1eD7Hzq-fFFbV-1">
          <mxGeometry x="240" y="20" width="120" height="460" as="geometry" />
        </mxCell>
      </root>
    </mxGraphModel>
  </diagram>
</mxfile>
